<?xml version="1.0" standalone="no"?>
<!DOCTYPE svg PUBLIC "-//W3C//DTD SVG 20010904//EN"
 "http://www.w3.org/TR/2001/REC-SVG-20010904/DTD/svg10.dtd">
<svg version="1.0" xmlns="http://www.w3.org/2000/svg"
 width="128.000000pt" height="128.000000pt" viewBox="0 0 128.000000 128.000000"
 preserveAspectRatio="xMidYMid meet">
<metadata>
Created by potrace 1.11, written by Peter Selinger 2001-2013
</metadata>
<g transform="translate(0.000000,128.000000) scale(0.100000,-0.100000)"
fill="#000000" stroke="none">
<path d="M670 1142 c-97 -33 -210 -193 -210 -296 0 -117 99 -219 202 -209 58
6 142 49 182 94 93 102 99 265 14 360 -55 62 -111 77 -188 51z m54 -117 c26
-26 1 -115 -32 -115 -30 0 -40 19 -32 56 4 19 5 34 2 34 -3 0 3 9 13 20 22 24
29 25 49 5z m120 -30 c11 -12 14 -27 9 -58 -6 -49 -28 -70 -57 -55 -15 8 -17
17 -12 57 3 25 14 52 23 59 21 15 18 15 37 -3z"/>
<path d="M123 828 l-73 -39 25 -65 c30 -79 82 -160 144 -221 44 -45 126 -102
165 -116 13 -5 15 -11 9 -20 -14 -18 -41 -123 -49 -188 l-6 -56 317 0 317 0
-5 56 c-4 48 -23 113 -51 182 -6 12 6 24 48 47 95 54 208 184 246 282 7 19 17
40 21 45 5 6 -26 29 -78 58 -47 27 -86 47 -87 45 -57 -125 -168 -222 -281
-246 -64 -14 -187 -14 -241 -1 -123 30 -260 136 -300 232 -11 28 -25 46 -34
46 -8 -1 -48 -19 -87 -41z"/>
</g>
</svg>
