
<svg xmlns="http://www.w3.org/2000/svg" version="1.1" xmlns:xlink="http://www.w3.org/1999/xlink" preserveAspectRatio="none" x="0px" y="0px" width="256px" height="256px" viewBox="0 0 256 256">
<defs>
<g id="Layer0_0_FILL">
<path fill="#ffffff" stroke="none" d="
M 243.1 80.6
L 223.2 60.75 156.45 127.5 123.9 95 104.05 114.85 156.45 167.3 243.1 80.6
M 191.35 65.75
Q 194.4 65.75 197 66.8
L 205.25 59
Q 199.1 55.1 191.35 55.1
L 108.5 55.1
Q 97.7 55.1 90.1 62.7 82.45 70.35 82.45 81.15
L 82.45 164
Q 82.45 174.8 90.1 182.4 97.7 190.1 108.5 190.1
L 191.35 190.1
Q 202.15 190.1 209.75 182.45
L 209.8 182.4
Q 217.45 174.8 217.45 164
L 217.45 124.15
Q 212.05 130.1 206.75 136.15
L 206.75 164
Q 206.75 170.35 202.2 174.85 197.7 179.4 191.35 179.4
L 108.5 179.4
Q 102.1 179.4 97.6 174.85 93.15 170.4 93.15 164
L 93.15 81.15
Q 93.15 74.75 97.6 70.3
L 97.65 70.25
Q 102.1 65.75 108.5 65.75
L 191.35 65.75 Z"/>
</g>

<g id="Layer0_1_FILL">
<path fill="#ffffff" stroke="none" d="
M 75.1 128.05
L 63.7 117.4 63.75 117.35 31.4 87.15 16.4 103.25 32.1 117.9 -57.6 117.9 -57.6 138.35 31.95 138.35 16.4 152.9 31.45 168.95 75.1 128.05 Z"/>
</g>
</defs>

<g transform="matrix( 0.9368896484375, 0, 0, 0.9368896484375, -5.1,62.2) ">
<use xlink:href="#Layer0_0_FILL"/>
</g>

<g transform="matrix( 1.1014556884765625, 0, 0, 1.1014556884765625, 101.55,-82.3) ">
<use xlink:href="#Layer0_1_FILL"/>
</g>
</svg>
