
<svg xmlns="http://www.w3.org/2000/svg" version="1.1" xmlns:xlink="http://www.w3.org/1999/xlink" preserveAspectRatio="none" x="0px" y="0px" width="256px" height="256px" viewBox="0 0 256 256">
<defs>
<g id="Layer0_0_FILL">
<path fill="#ffffff" stroke="none" d="
M 171.05 91.35
Q 178.05 80.25 188.35 75.25 197.1 71.1 205.95 72.7 214.1 74.2 219.2 80.45
L 219.25 80.45 219.25 80.5
Q 225 87.65 225.2 98.4 225.45 111.75 219.6 123.25
L 219.65 123.25
Q 214.35 133.45 203.75 143.7 196 151.2 180.45 162.95 168.55 171.95 161.4 177.65 154.4 172.05 142.55 163
L 142.5 162.95
Q 131.15 154.3 123.95 147.9
L 93.6 147.9
Q 98.15 153.7 104.05 159.45
L 104.05 159.5
Q 112.5 167.7 129.15 180.45 148.05 194.9 154.25 200.2
L 161.4 206.3 168.55 200.2
Q 175.1 194.65 193.75 180.5
L 193.7 180.5
Q 210.6 167.7 219.05 159.5 232.65 146.35 239.25 133.2
L 239.25 133.15
Q 247.45 116.95 247.2 98.05 246.9 79.05 236.25 66.5 226.1 54 209.95 51.05
L 209.9 51.05
Q 194.3 48.1 178.95 55.35 169.5 59.75 161.9 67.5 154.35 59.45 144.8 54.95 129.45 47.5 113.65 50.65
L 113.6 50.65
Q 97.6 53.8 87.35 66.25
L 87.35 66.3
Q 76.6 79.1 76.3 98.05
L 76.3 98.1
Q 76.3 99.95 76.35 101.75
L 98.35 101.75
Q 98.3 100.1 98.3 98.4
L 98.3 98.35
Q 98.5 87.6 104.3 80.25
L 104.35 80.25
Q 109.6 73.9 117.85 72.25 126.7 70.6 135.25 74.75 145.5 79.85 152.35 91.15
L 161.55 105.9 171.05 91.35
M 52.45 115.8
L 68 101.25 52.95 85.2 9.3 126.1 20.7 136.75 20.65 136.8 53 167 68 150.9 52.3 136.25 142 136.25 142 115.8 52.45 115.8 Z"/>
</g>
</defs>

<g transform="matrix( 1, 0, 0, 1, 0,0) ">
<use xlink:href="#Layer0_0_FILL"/>
</g>
</svg>
