
<svg xmlns="http://www.w3.org/2000/svg" version="1.1" xmlns:xlink="http://www.w3.org/1999/xlink" preserveAspectRatio="none" x="0px" y="0px" width="256px" height="256px" viewBox="0 0 256 256">
<defs>
<g id="Layer0_0_FILL">
<path fill="#ffffff" stroke="none" d="
M 243.1 68.05
L 214.65 39.65 119.25 135.1 72.7 88.6 44.3 117 119.2 191.95 243.1 68.05
M 188.95 37.2
Q 180.2 31.6 169.1 31.6
L 50.7 31.6
Q 35.25 31.6 24.35 42.45 13.45 53.4 13.45 68.85
L 13.45 187.25
Q 13.45 202.7 24.35 213.6 35.25 224.55 50.7 224.55
L 169.1 224.55
Q 184.55 224.55 195.45 213.65
L 195.5 213.6
Q 206.4 202.7 206.4 187.25
L 206.4 130.3
Q 198.7 138.8 191.1 147.45
L 191.1 187.25
Q 191.1 196.35 184.65 202.8 178.2 209.25 169.1 209.25
L 50.7 209.25
Q 41.55 209.25 35.1 202.8 28.7 196.4 28.7 187.25
L 28.7 68.85
Q 28.7 59.7 35.1 53.3
L 35.15 53.25
Q 41.55 46.85 50.7 46.85
L 169.1 46.85
Q 173.45 46.85 177.2 48.3
L 188.95 37.2 Z"/>
</g>
</defs>

<g transform="matrix( 1, 0, 0, 1, 0,0) ">
<use xlink:href="#Layer0_0_FILL"/>
</g>
</svg>
