
<svg xmlns="http://www.w3.org/2000/svg" version="1.1" xmlns:xlink="http://www.w3.org/1999/xlink" preserveAspectRatio="none" x="0px" y="0px" width="256px" height="256px" viewBox="0 0 256 256">
<defs>
<g id="Layer0_0_FILL">
<path fill="#ffffff" stroke="none" d="
M 187.2 103.1
Q 180.2 112.15 173 117.05 165.8 122.05 158 122.05 153.8 122.05 150.4 121.1 146.9 120.25 142.85 118 138.75 115.8 132.6 111.8 126.5 107.8 119.2 105.6 112.1 103.35 101.55 103.35 91.7 103.5 81.8 107.8 72.05 111.85 63.75 118.5 55.6 125.05 50.55 132.4
L 69.85 153.05
Q 76.9 145.05 84.55 139.8 92.2 134.5 101.55 134.45 109.1 134.5 114.85 136.9 120.75 139.45 126.2 142.6 134.85 147.45 142.5 150.15 150.15 153 160 153.05 170.7 153.2 182.9 146.3 195.2 139.45 206.95 123.8
L 187.2 103.1 Z"/>
</g>
</defs>

<g transform="matrix( 1, 0, 0, 1, 0,0) ">
<use xlink:href="#Layer0_0_FILL"/>
</g>
</svg>
