
<svg xmlns="http://www.w3.org/2000/svg" version="1.1" xmlns:xlink="http://www.w3.org/1999/xlink" preserveAspectRatio="none" x="0px" y="0px" width="256px" height="256px" viewBox="0 0 256 256">
<defs>
<g id="Layer0_0_FILL">
<path fill="#ffffff" stroke="none" d="
M 180.2 98.05
Q 179.9 79.1 169.15 66.3
L 169.15 66.25
Q 158.9 53.8 142.9 50.65
L 142.85 50.65
Q 127.05 47.5 111.7 54.95 102.15 59.45 94.6 67.5 87 59.75 77.55 55.35 62.2 48.1 46.6 51.05
L 46.55 51.05
Q 30.4 54 20.25 66.5 9.6 79.05 9.3 98.05 9.05 116.95 17.25 133.15
L 17.25 133.2
Q 23.85 146.35 37.45 159.5 45.9 167.7 62.8 180.5
L 62.75 180.5
Q 81.4 194.65 87.95 200.2
L 95.1 206.3 102.25 200.2
Q 108.45 194.9 127.35 180.45 144 167.7 152.45 159.5
L 152.45 159.45
Q 158.35 153.7 162.9 147.9
L 132.55 147.9
Q 125.35 154.3 114 162.95
L 113.95 163
Q 102.1 172.05 95.1 177.65 87.95 171.95 76.05 162.95 60.5 151.2 52.75 143.7 42.15 133.45 36.85 123.25
L 36.9 123.25
Q 31.05 111.75 31.3 98.4 31.5 87.65 37.25 80.5
L 37.25 80.45 37.3 80.45
Q 42.4 74.2 50.55 72.7 59.4 71.1 68.15 75.25 78.45 80.25 85.45 91.35
L 94.95 105.9 104.15 91.15
Q 111 79.85 121.25 74.75 129.8 70.6 138.65 72.25 146.9 73.9 152.15 80.25
L 152.2 80.25
Q 158 87.6 158.2 98.35
L 158.2 98.4
Q 158.2 100.1 158.15 101.75
L 180.15 101.75
Q 180.2 99.95 180.2 98.1
L 180.2 98.05
M 235.85 136.8
L 235.8 136.75 247.2 126.1 203.55 85.2 188.5 101.25 204.05 115.8 114.5 115.8 114.5 136.25 204.2 136.25 188.5 150.9 203.5 167 235.85 136.8 Z"/>
</g>
</defs>

<g transform="matrix( 1, 0, 0, 1, 0,0) ">
<use xlink:href="#Layer0_0_FILL"/>
</g>
</svg>
