
<svg xmlns="http://www.w3.org/2000/svg" version="1.1" xmlns:xlink="http://www.w3.org/1999/xlink" preserveAspectRatio="none" x="0px" y="0px" width="256px" height="256px" viewBox="0 0 256 256">
<defs>
<g id="Layer0_0_FILL">
<path fill="#ffffff" stroke="none" d="
M 247.8 85.95
L 247.8 85.9
Q 247.35 59.45 232.45 41.7
L 232.45 41.65
Q 218.15 24.35 195.9 20 173.9 15.65 152.5 26 138.8 32.45 128.05 44.1 117.25 32.85 103.75 26.55
L 103.7 26.55
Q 82.3 16.4 60.55 20.55
L 60.5 20.55
Q 38.15 24.7 24.05 41.9 9.15 59.5 8.75 85.9
L 8.75 85.95
Q 8.4 112.3 19.85 134.95
L 19.85 135
Q 29.15 153.5 48.15 171.8
L 48.15 171.85
Q 60.05 183.4 83.7 201.35
L 83.75 201.35
Q 110.05 221.3 119.2 229.2
L 128.75 237.3 138.3 229.2
Q 147 221.7 173.7 201.35
L 173.7 201.3
Q 197.05 183.4 208.9 171.8
L 208.95 171.75
Q 227.7 153.45 236.85 134.85
L 236.85 134.9
Q 248.1 112.25 247.8 85.95
M 190.3 48.7
L 190.35 48.7
Q 202.25 51.05 209.9 60.3
L 209.85 60.25
Q 218.25 70.8 218.55 86.35
L 218.55 86.4
Q 218.8 105.45 210.65 121.85 203.3 136.4 188.5 150.85 177.5 161.55 155.95 178.1
L 155.9 178.1
Q 138.75 191.2 128.75 199.2 118.6 191.1 101.4 178.05 79.5 161.45 68.5 150.8
L 68.45 150.8
Q 53.45 136.3 45.95 121.75 37.7 105.4 38 86.4
L 38 86.35
Q 38.25 70.9 46.55 60.55
L 46.6 60.55 46.6 60.5
Q 54.05 51.5 65.9 49.3 78.65 47 91.2 53
L 91.2 52.95
Q 105.9 60.1 115.9 75.95
L 128.5 95.25 140.75 75.7
Q 150.55 59.55 165.2 52.35 177.6 46.35 190.3 48.7 Z"/>
</g>
</defs>

<g transform="matrix( 1, 0, 0, 1, 0,0) ">
<use xlink:href="#Layer0_0_FILL"/>
</g>
</svg>
